<?xml version="1.0" encoding="utf-8"?><!DOCTYPE svg PUBLIC "-//W3C//DTD SVG 1.1//EN" "http://www.w3.org/Graphics/SVG/1.1/DTD/svg11.dtd"><svg viewBox="0 0 553.102 553.102" xmlns="http://www.w3.org/2000/svg" xmlns:xlink="http://www.w3.org/1999/xlink"><style>:root>svg{display:none}:root>svg:target{display:block}</style><svg viewBox="0 0 512 512" id="copyright" xmlns="http://www.w3.org/2000/svg"><path d="M256 8C119.033 8 8 119.033 8 256s111.033 248 248 248 248-111.033 248-248S392.967 8 256 8zm0 448c-110.532 0-200-89.451-200-200 0-110.531 89.451-200 200-200 110.532 0 200 89.451 200 200 0 110.532-89.451 200-200 200zm107.351-101.064c-9.614 9.712-45.53 41.396-104.065 41.396-82.43 0-140.484-61.425-140.484-141.567 0-79.152 60.275-139.401 139.762-139.401 55.531 0 88.738 26.62 97.593 34.779a11.965 11.965 0 011.936 15.322l-18.155 28.113c-3.841 5.95-11.966 7.282-17.499 2.921-8.595-6.776-31.814-22.538-61.708-22.538-48.303 0-77.916 35.33-77.916 80.082 0 41.589 26.888 83.692 78.277 83.692 32.657 0 56.843-19.039 65.726-27.225 5.27-4.857 13.596-4.039 17.82 1.738l19.865 27.17a11.947 11.947 0 01-1.152 15.518z"/></svg><svg viewBox="0 0 512 512" id="email" xmlns="http://www.w3.org/2000/svg"><path d="M163.576 305.929L14.515 159.36C9.122 154.052 0 157.875 0 165.444v276.608c0 7.322 8.619 11.247 14.14 6.434l149.06-130.03c3.755-3.277 3.925-9.037.376-12.527zM474.121 136.55h-81.587c-4.634 0-8.542 3.695-8.533 8.337.111 70.673-57.353 128.196-128 128.196s-128.111-57.523-128-128.196c.009-4.642-3.9-8.337-8.533-8.337H37.879c-7.629 0-11.426 9.25-5.99 14.609l218.121 215.04a8.53 8.53 0 0011.981 0l218.121-215.04c5.435-5.358 1.646-14.609-5.991-14.609z"/><path d="M486.562 462.916L335.514 329.523a8.528 8.528 0 00-11.597.282l-61.969 60.297c-1.656 1.604-3.797 2.415-5.948 2.415s-4.292-.811-5.948-2.415l-61.969-60.297a8.53 8.53 0 00-11.597-.282L25.438 462.916c-5.888 5.205-2.21 14.933 5.649 14.933h449.826c7.859.001 11.537-9.727 5.649-14.933zM497.485 159.351l-149.06 146.577c-3.541 3.482-3.371 9.25.375 12.518l149.06 130.031c5.521 4.813 14.14.887 14.14-6.434V165.436c0-7.569-9.122-11.392-14.515-6.085zM256 34.15c-61.269 0-110.933 49.664-110.933 110.933S194.731 256.017 256 256.017s110.933-49.664 110.933-110.933S317.269 34.15 256 34.15zm34.372 94.225l-21.521-.299a4.264 4.264 0 00-4.318 4.267v85.274a4.268 4.268 0 01-4.267 4.267h-8.533a4.268 4.268 0 01-4.267-4.267v-85.274a4.265 4.265 0 00-4.326-4.267l-21.521.299c-3.473 0-5.487-3.925-3.473-6.75l34.372-48.128c1.698-2.381 5.239-2.381 6.946 0l34.381 48.128c2.014 2.825 0 6.75-3.473 6.75z"/></svg><svg viewBox="0 0 29.94 29.94" id="facebook" xmlns="http://www.w3.org/2000/svg"><path d="M27.56.684H2.383A2.38 2.38 0 000 3.064v23.813a2.381 2.381 0 002.383 2.379H27.56a2.382 2.382 0 002.38-2.379V3.064a2.382 2.382 0 00-2.38-2.38zm-7.435 8.483c-.619-.362-1.11-.648-1.727-.648-.604 0-1.12.151-1.384.405-.264.252-.395.74-.395 1.461v1.067h3.229l-.699 2.968h-2.53v9.862h-4.056V14.42H10.67v-2.968h1.895v-1.133c0-1.193.143-1.907.425-2.496.281-.587.826-1.241 1.584-1.611.757-.369 1.877-.555 3.036-.555 1.188 0 2.116.396 3.254.715l-.739 2.795z"/></svg><svg viewBox="0 0 300 300" id="instagram" xmlns="http://www.w3.org/2000/svg"><path d="M38.52.012h222.978C282.682.012 300 17.336 300 38.52v222.978c0 21.178-17.318 38.49-38.502 38.49H38.52c-21.184 0-38.52-17.313-38.52-38.49V38.52C0 17.336 17.336.012 38.52.012zm180.026 33.317c-7.438 0-13.505 6.091-13.505 13.525v32.314c0 7.437 6.067 13.514 13.505 13.514h33.903c7.426 0 13.506-6.077 13.506-13.514V46.854c0-7.434-6.08-13.525-13.506-13.525h-33.903zm47.538 93.539h-26.396a87.715 87.715 0 013.86 25.759c0 49.882-41.766 90.34-93.266 90.34-51.487 0-93.254-40.458-93.254-90.34 0-8.963 1.37-17.584 3.861-25.759H33.35V253.6c0 6.563 5.359 11.902 11.916 11.902h208.907c6.563 0 11.911-5.339 11.911-11.902V126.868zm-115.801-35.89c-33.26 0-60.24 26.128-60.24 58.388 0 32.227 26.98 58.375 60.24 58.375 33.278 0 60.259-26.148 60.259-58.375 0-32.261-26.981-58.388-60.259-58.388z"/></svg><svg viewBox="0 0 420.514 420.514" id="phone" xmlns="http://www.w3.org/2000/svg"><path d="M293.814 254.728l-37.701 28.083-7.636 24.527a393.717 393.717 0 01-135.301-135.301l24.527-7.636 28.083-37.701L75.978 0 33.567 20.089 0 101.609l.863 2.632c24.033 73.265 65.555 140.81 120.077 195.332 54.522 54.522 122.067 96.044 195.332 120.077l2.632.863 81.521-33.567 20.088-42.41-126.699-89.808zM147.246 126.481l-13.948 18.724L50.681 28.58l20.34-9.634 76.225 107.535zM318.327 404.53c-70.028-23.428-134.565-63.348-186.78-115.563S39.412 172.215 15.985 102.186l25.164-61.113 79.908 112.801-30.221 9.409 4.594 8.095a408.68 408.68 0 00153.708 153.708l8.096 4.594 9.408-30.221 112.801 79.907-61.116 25.164zm73.607-34.697l-116.626-82.617 18.724-13.948 107.536 76.225-9.634 20.34z"/></svg><svg viewBox="0 0 553.102 553.102" id="youtube" xmlns="http://www.w3.org/2000/svg"><path d="M333.087 326.967c-8.641 0-16.805 4.799-24.485 14.4v-57.98h-24.125v177.529h24.125v-12.969c7.919 9.848 16.077 14.768 24.485 14.768 9.842 0 16.2-5.037 19.083-15.123 1.677-5.049 2.521-13.801 2.521-26.291v-52.576c0-12.719-.845-21.604-2.521-26.641-2.883-10.086-9.241-15.117-19.083-15.117zm-2.16 96.138c0 11.775-3.482 17.639-10.446 17.639-4.082 0-8.042-1.916-11.879-5.752v-80.668c3.837-3.826 7.797-5.754 11.879-5.754 6.958 0 10.446 6.004 10.446 18.006v56.529zM409.422 326.967c-12.24 0-21.849 4.572-28.807 13.686-4.804 6.469-7.203 16.811-7.203 30.961v46.463c0 14.162 2.521 24.473 7.564 30.961 6.958 9.131 16.683 13.684 29.168 13.684 12.724 0 22.325-4.797 28.807-14.406 2.883-4.32 4.682-9.113 5.404-14.406.477-3.348.716-8.525.716-15.49v-3.236h-24.486v7.734c0 2.515-.062 4.498-.178 5.949-.122 1.432-.177 2.277-.177 2.516-1.438 6.248-5.043 9.352-10.802 9.352-8.165 0-12.24-6.121-12.24-18.354v-23.41h47.889V371.61c0-13.912-2.521-24.236-7.559-30.963-6.486-9.108-15.85-13.68-28.096-13.68zm11.524 52.211h-23.765v-12.254c0-12.238 3.96-18.354 11.88-18.354 7.925 0 11.885 6.121 11.885 18.354v12.254zM239.818 429.588c-5.281 7.441-10.324 11.156-15.123 11.156-3.366 0-5.165-1.799-5.397-5.404-.245-.465-.361-3.598-.361-9.352v-97.223h-23.764v104.426c0 9.131.722 15.6 2.16 19.438 2.161 6.738 7.203 10.086 15.123 10.086 8.88 0 18.005-5.404 27.369-16.205v14.406h24.125v-132.15h-24.125v100.822h-.007zM271.153 193.013c7.681 0 11.524-6.132 11.524-18.372v-56.182c0-12.479-3.843-18.721-11.524-18.721-7.687 0-11.524 6.242-11.524 18.721v56.182c0 12.239 3.837 18.372 11.524 18.372zM108.03 308.596h28.085v152.32h26.647v-152.32h28.806v-25.209H108.03z"/><path d="M449.398 0H103.71C75.142 0 50.717 10.153 30.429 30.422 10.141 50.723 0 75.142 0 103.709v345.683c0 28.566 10.141 52.998 30.429 73.268 20.282 20.281 44.707 30.441 73.281 30.441h345.688c28.562 0 52.986-10.154 73.274-30.441 20.281-20.27 30.429-44.701 30.429-73.268V103.709c0-28.568-10.147-52.987-30.429-73.287C502.385 10.153 477.96 0 449.398 0zM326.606 79.939h24.125v97.938c0 5.765.122 8.892.361 9.37.238 3.855 2.16 5.765 5.759 5.765 4.798 0 9.841-3.715 15.122-11.169V79.939h24.125v133.232h-24.125v-14.406c-9.847 10.802-19.088 16.206-27.729 16.206-7.687 0-12.846-3.237-15.483-9.719-1.438-4.32-2.16-10.918-2.16-19.804V79.939h.005zm-91.108 43.208c0-13.911 2.521-24.364 7.564-31.322 6.481-9.113 15.845-13.685 28.085-13.685 11.756 0 21.12 4.572 28.084 13.685 5.043 6.964 7.559 17.411 7.559 31.322v46.812c0 14.4-2.521 24.854-7.559 31.322-6.965 9.131-16.328 13.685-28.084 13.685-12.24 0-21.604-4.56-28.085-13.685-5.043-6.946-7.564-17.387-7.564-31.322v-46.812zm-64.811-88.936l19.088 70.215 18.36-70.215h27.008l-32.406 106.592v72.369h-26.646v-72.369c-2.644-13.207-8.164-32.167-16.566-56.897-1.683-5.514-4.45-13.801-8.287-24.853a18409.954 18409.954 0 01-8.642-24.841h28.091zm296.716 434.623c-2.405 10.338-7.51 19.09-15.307 26.293-7.803 7.203-16.866 11.406-27.185 12.6-32.89 3.6-82.345 5.404-148.355 5.404-66.023 0-115.472-1.799-148.355-5.404-10.325-1.193-19.388-5.402-27.185-12.6-7.803-7.203-12.907-15.949-15.3-26.293-4.804-20.158-7.203-51.371-7.203-93.623 0-41.523 2.399-72.736 7.203-93.623 2.399-10.551 7.503-19.37 15.3-26.458 7.797-7.087 16.983-11.224 27.546-12.436 32.644-3.599 81.978-5.404 148-5.404 66.255 0 115.705 1.799 148.355 5.404 10.324 1.212 19.449 5.343 27.368 12.436 7.926 7.087 13.085 15.906 15.484 26.458 4.559 19.932 6.842 51.133 6.842 93.623-.01 42.252-2.41 73.465-7.208 93.623z"/></svg></svg>