<?xml version="1.0" standalone="no"?>
<!DOCTYPE svg PUBLIC "-//W3C//DTD SVG 20010904//EN"
 "http://www.w3.org/TR/2001/REC-SVG-20010904/DTD/svg10.dtd">
<svg version="1.0" xmlns="http://www.w3.org/2000/svg"
 width="480.000000pt" height="480.000000pt" viewBox="0 0 480.000000 480.000000"
 preserveAspectRatio="xMidYMid meet">
<metadata>
Created by potrace 1.16, written by Peter Selinger 2001-2019
</metadata>
<g transform="translate(0.000000,480.000000) scale(0.100000,-0.100000)"
fill="#000000" stroke="none">
<path d="M1130 4660 c0 -6 -26 -10 -57 -10 -32 0 -74 -4 -93 -9 -19 -5 -62
-14 -95 -21 -190 -41 -402 -188 -523 -364 -112 -162 -165 -313 -179 -511 -3
-38 -9 -75 -14 -81 -12 -15 -11 -2531 1 -2539 6 -3 10 -30 10 -59 0 -56 30
-209 56 -291 42 -126 154 -299 250 -384 63 -55 168 -131 183 -131 6 0 11 -7
11 -15 0 -9 6 -12 16 -8 9 3 19 2 23 -3 8 -12 121 -51 189 -65 28 -6 52 -14
52 -17 0 -4 25 -7 55 -7 31 0 59 -5 63 -11 9 -14 52 -25 52 -13 0 5 307 10
733 11 l732 3 3 903 c2 718 0 902 -10 902 -7 0 -130 0 -273 0 -143 0 -266 4
-273 8 -9 7 -12 70 -10 283 l3 274 280 5 280 5 5 405 c5 388 6 408 28 468 38
105 81 173 167 258 66 66 99 90 176 128 60 29 118 49 159 56 36 5 203 10 372
10 l308 0 5 -22 c3 -13 4 -126 3 -253 l-3 -230 -175 -6 c-168 -5 -178 -7 -242
-36 -77 -36 -150 -100 -181 -158 -21 -38 -22 -52 -22 -330 l0 -290 280 -5 280
-5 0 -280 0 -280 -282 -3 -283 -2 0 -900 c0 -712 3 -901 13 -905 22 -7 425
-11 421 -3 -2 4 17 9 43 13 27 3 89 14 138 24 50 11 91 15 93 10 2 -5 8 -9 13
-9 6 0 8 4 4 9 -9 16 30 32 44 18 10 -9 11 -9 7 3 -4 11 10 22 47 39 230 107
423 346 492 607 43 165 45 217 45 1537 0 1260 -2 1354 -36 1524 -44 227 -200
455 -401 591 -34 23 -67 42 -72 42 -6 0 -11 5 -11 10 0 6 -6 10 -14 10 -15 0
-108 39 -116 49 -3 4 -16 7 -30 8 -14 0 -52 6 -85 13 -33 6 -91 16 -130 22
-95 15 -2525 22 -2525 8z"/>
</g>
</svg>
