<?xml version="1.0" encoding="UTF-8"?>
<!DOCTYPE svg PUBLIC "-//W3C//DTD SVG 1.1//EN" "http://www.w3.org/Graphics/SVG/1.1/DTD/svg11.dtd">
<!-- Creator: CorelDRAW 2019 (64-Bit) -->
<svg xmlns="http://www.w3.org/2000/svg" xml:space="preserve" width="116.545mm" height="70.2832mm" version="1.1" style="shape-rendering:geometricPrecision; text-rendering:geometricPrecision; image-rendering:optimizeQuality; fill-rule:evenodd; clip-rule:evenodd"
viewBox="0 0 10926.07 6589.02"
 xmlns:xlink="http://www.w3.org/1999/xlink">
 <defs>
  <style type="text/css">
   <![CDATA[
    .fil0 {fill:#99CC33}
    .fil1 {fill:black;fill-rule:nonzero}
    .fil2 {fill:#999999;fill-rule:nonzero}
   ]]>
  </style>
 </defs>
 <g id="Слой_x0020_1">
  <metadata id="CorelCorpID_0Corel-Layer"/>
  <g id="_1046676976">
   <polygon class="fil0" points="3675.78,3643.41 2923.48,3643.41 2923.48,2882.17 6566.88,0 "/>
   <polygon class="fil0" points="2806.25,2882.17 2806.25,3643.41 2043.74,3643.41 720.2,1557.4 "/>
   <polygon class="fil0" points="2806.25,4514.21 2806.25,3760.63 2043.74,3760.63 462.45,6104.44 "/>
   <polygon class="fil0" points="2923.48,4514.21 2923.48,3760.63 3675.78,3760.63 5751.86,6589.02 "/>
   <path class="fil1" d="M-0 2857.51l952.18 0 0 162.18 -785.37 0 0 521.26 778.42 0 0 162.17 -778.42 0 0 655.64 778.42 0 0 162.17 -945.23 0 0 -1663.41zm4923.44 162.18l0 -162.18 910.47 0 0 162.18 -370.68 0 0 1501.23 -169.11 0 0 -1501.23 -370.68 0zm1153.33 -162.18l952.18 0 0 162.18 -785.37 0 0 521.26 778.42 0 0 162.17 -778.42 0 0 655.64 778.42 0 0 162.17 -945.23 0 0 -1663.41zm1249.1 0l332.06 0c184.95,0 310.44,7.72 376.08,22.78 99.23,22.4 179.55,70.66 241.33,145.18 62.17,74.14 93.06,165.65 93.06,274.15 0,90.35 -21.23,169.89 -64.1,238.24 -42.48,68.73 -103.48,120.47 -183.02,155.61 -79.16,35.14 -188.82,52.89 -328.59,53.67l598.87 773.78 -204.26 0 -598.87 -773.78 -95.76 0 0 773.78 -166.8 0 0 -1663.41zm166.8 162.18l0 565.27 287.28 2.32c111.59,0 193.83,-10.42 247.11,-31.66 53.29,-21.23 94.99,-54.82 125.1,-101.17 29.74,-46.33 44.79,-98.07 44.79,-155.61 0,-55.6 -15.06,-106.57 -45.56,-152.13 -30.11,-45.56 -69.89,-78 -119.31,-97.69 -49.04,-19.7 -130.9,-29.34 -245.19,-29.34l-294.22 0zm1207.02 -162.18l166.81 0 0 1663.41 -166.81 0 0 -1663.41zm1339.84 -41.7c251.75,0 462.57,84.18 632.08,252.14 169.51,167.96 254.45,374.92 254.45,620.49 0,243.65 -84.56,450.22 -253.69,619.72 -169.5,169.51 -375.69,254.45 -619.33,254.45 -246.35,0 -454.47,-84.56 -623.98,-253.29 -169.5,-168.74 -254.45,-372.99 -254.45,-612.78 0,-159.85 38.61,-307.73 115.84,-444.42 77.22,-136.3 182.63,-243.26 316.23,-320.48 133.21,-77.22 277.62,-115.84 432.84,-115.84zm7.34 162.17c-122.79,0 -239.4,32.05 -349.83,96.15 -110.04,64.1 -196.15,150.2 -258.32,258.7 -61.78,108.88 -92.67,229.74 -92.67,363.34 0,197.31 68.34,364.11 205.41,500.02 137.08,136.3 302.33,204.26 495.4,204.26 129.35,0 248.66,-31.27 358.31,-93.82 110.05,-62.56 195.77,-148.27 257.16,-256.77 61.39,-108.51 92.28,-228.97 92.28,-361.8 0,-132.06 -30.89,-251.36 -92.28,-357.94 -61.4,-106.57 -148.27,-191.9 -259.86,-255.99 -111.59,-64.1 -230.13,-96.15 -355.61,-96.15z"/>
   <path class="fil2" d="M7994.97 4602.57l0 821.88 -75.94 0 0 -101.99c-32.01,38.9 -67.74,68.12 -107.57,87.48 -39.65,19.35 -83.19,29.02 -130.28,29.02 -83.75,0 -155.41,-30.33 -214.78,-91 -59.36,-60.86 -88.96,-134.57 -88.96,-221.66 0,-85.06 29.96,-158.01 89.9,-218.5 59.74,-60.49 131.76,-90.82 216.07,-90.82 48.58,0 92.5,10.42 131.96,31.08 39.26,20.66 73.88,51.74 103.66,93.24l0 -338.73 75.94 0zm-305.6 288.11c-42.44,0 -81.71,10.42 -117.44,31.27 -35.92,20.65 -64.4,49.87 -85.61,87.47 -21.22,37.59 -31.83,77.43 -31.83,119.48 0,41.51 10.6,81.34 32.02,119.31 21.4,37.97 50.06,67.56 86.17,88.59 36.1,21.22 74.82,31.82 116.14,31.82 41.5,0 81.15,-10.42 118.37,-31.45 37.41,-21.03 66.07,-49.32 86.17,-85.24 20.1,-35.74 30.15,-76.12 30.15,-120.97 0,-68.31 -22.52,-125.45 -67.74,-171.41 -45.05,-45.97 -100.51,-68.86 -166.39,-68.86zm979.33 337.24l64.4 33.87c-21.22,41.13 -45.59,74.45 -73.32,99.76 -27.73,25.12 -58.82,44.48 -93.43,57.69 -34.81,13.22 -73.89,19.72 -117.63,19.72 -97.15,0 -172.9,-31.63 -227.61,-94.91 -54.72,-63.28 -82.08,-134.75 -82.08,-214.41 0,-75.01 23.26,-142 69.6,-200.63 58.63,-74.63 137.35,-112.04 235.81,-112.04 101.44,0 182.59,38.34 243.07,114.83 42.98,53.97 64.95,121.35 65.69,202.3l-536 0c1.48,68.68 23.63,124.88 66.25,168.63 42.81,43.92 95.66,65.88 158.38,65.88 30.34,0 59.93,-5.21 88.59,-15.63 28.66,-10.42 53.04,-24.2 73.14,-41.5 20.1,-17.32 41.88,-45.05 65.14,-83.57zm0.75 -159.68c-10.24,-40.76 -25.12,-73.14 -44.67,-97.53 -19.72,-24.38 -45.6,-43.92 -77.79,-58.81 -32.19,-14.9 -66.07,-22.34 -101.44,-22.34 -58.62,0 -108.87,18.62 -150.94,56.02 -30.89,27.36 -53.97,68.12 -69.79,122.65l444.63 0zm523.53 -172.35l-49.13 50.62c-40.75,-39.45 -80.77,-59.18 -119.67,-59.18 -24.75,0 -45.97,8.19 -63.65,24.57 -17.68,16.19 -26.62,35.36 -26.62,57.13 0,19.17 7.26,37.6 21.77,54.91 14.52,17.87 45.23,38.71 91.76,62.72 56.58,29.22 95.1,57.69 115.57,84.87 19.91,27.54 29.96,58.62 29.96,93.06 0,48.76 -17.12,89.9 -51.37,123.77 -34.25,33.68 -77.05,50.62 -128.42,50.62 -34.25,0 -66.82,-7.44 -98.08,-22.33 -31.09,-14.89 -56.77,-35.36 -77.24,-61.6l48.02 -54.53c38.9,43.92 80.4,65.89 124.13,65.89 30.52,0 56.58,-9.86 78.17,-29.41 21.4,-19.54 32.2,-42.62 32.2,-69.05 0,-21.78 -7.08,-41.13 -21.22,-58.26 -14.33,-16.74 -46.35,-37.78 -96.22,-63.09 -53.6,-27.54 -90.08,-54.71 -109.25,-81.52 -19.36,-26.8 -29.03,-57.32 -29.03,-91.75 0,-44.85 15.44,-82.08 46.15,-111.85 30.9,-29.6 69.8,-44.48 116.88,-44.48 54.72,0 109.81,26.24 165.27,78.91zm160.81 -307.83c17.31,0 32.01,6.14 44.29,18.61 12.29,12.28 18.43,27.36 18.43,44.66 0,17.13 -6.14,32.02 -18.43,44.3 -12.28,12.47 -26.98,18.61 -44.29,18.61 -17.13,0 -31.64,-6.14 -43.93,-18.61 -12.28,-12.28 -18.42,-27.17 -18.42,-44.3 0,-17.31 6.14,-32.38 18.42,-44.66 12.29,-12.47 26.8,-18.61 43.93,-18.61zm-37.78 243.43l75.93 0 0 592.97 -75.93 0 0 -592.97zm747.25 0l75.94 0 0 471.99c0,83.01 -7.26,143.87 -21.78,182.39 -19.91,54.35 -54.53,96.22 -104.03,125.63 -49.32,29.4 -108.69,44.11 -177.93,44.11 -50.81,0 -96.41,-7.27 -136.99,-21.59 -40.39,-14.52 -73.32,-33.87 -98.82,-58.26 -25.31,-24.2 -48.76,-59.93 -70.17,-106.64l82.64 0c22.52,39.45 51.55,68.67 87.29,87.66 35.54,18.98 79.84,28.47 132.51,28.47 52.11,0 96.03,-9.67 131.76,-28.85 35.92,-19.35 61.42,-43.55 76.68,-72.58 15.26,-29.22 22.89,-76.31 22.89,-141.64l0 -30.52c-28.66,36.3 -63.83,64.22 -105.34,83.57 -41.32,19.55 -85.43,29.22 -131.96,29.22 -54.52,0 -105.71,-13.58 -153.73,-40.57 -48.02,-26.98 -85.05,-63.46 -111.29,-109.06 -26.25,-45.79 -39.27,-96.04 -39.27,-150.76 0,-54.9 13.58,-105.9 40.94,-153.36 27.18,-47.27 64.96,-84.87 113.16,-112.42 48.21,-27.54 99.02,-41.32 152.43,-41.32 44.3,0 85.8,9.12 124.14,27.17 38.34,18.06 75.37,48.21 110.92,90.46l0 -103.12zm-225.38 59.19c-43.18,0 -83.38,10.42 -120.42,31.27 -37.03,20.84 -66.07,49.69 -87.1,86.54 -21.03,36.85 -31.63,76.68 -31.63,119.67 0,64.96 21.77,118.56 65.32,161.17 43.55,42.44 100.12,63.66 169.36,63.66 70.17,0 126.56,-21.04 169.18,-63.09 42.62,-42.25 64.02,-97.53 64.02,-166.2 0,-44.67 -9.86,-84.5 -29.4,-119.49 -19.55,-34.99 -47.47,-62.72 -83.38,-83.01 -35.92,-20.29 -74.63,-30.52 -115.95,-30.52zm464.17 -59.19l75.93 0 0 106.27c30.71,-40.57 64.58,-70.91 101.62,-90.82 37.22,-19.91 77.61,-29.96 121.35,-29.96 44.47,0 83.93,11.17 118.37,33.68 34.42,22.52 59.92,52.86 76.3,91.01 16.38,37.97 24.57,97.34 24.57,177.93l0 304.85 -75.94 0 0 -282.52c0,-68.12 -2.98,-113.72 -8.75,-136.6 -9.31,-39.08 -26.43,-68.49 -51.55,-88.41 -25.12,-19.73 -57.88,-29.6 -98.27,-29.6 -46.35,0 -87.85,15.26 -124.33,45.79 -36.67,30.34 -60.85,68.12 -72.39,113.16 -7.27,29.41 -10.99,83.01 -10.99,160.99l0 217.2 -75.93 0 0 -592.97z"/>
  </g>
 </g>
</svg>
