<?xml version="1.0" standalone="no"?>
<!DOCTYPE svg PUBLIC "-//W3C//DTD SVG 20010904//EN"
 "http://www.w3.org/TR/2001/REC-SVG-20010904/DTD/svg10.dtd">
<svg version="1.0" xmlns="http://www.w3.org/2000/svg"
 width="881.000000pt" height="1280.000000pt" viewBox="0 0 881.000000 1280.000000"
 preserveAspectRatio="xMidYMid meet">
<metadata>
Created by potrace 1.15, written by Peter Selinger 2001-2017
</metadata>
<g transform="translate(0.000000,1280.000000) scale(0.100000,-0.100000)"
fill="#000000" stroke="none">
<path d="M1570 12794 c-591 -32 -1120 -94 -1543 -180 -28 -6 -28 -7 -25 -72
l3 -67 190 -115 c764 -462 1349 -914 1910 -1475 632 -631 1079 -1253 1417
-1970 325 -689 504 -1357 580 -2160 17 -186 17 -862 0 -1050 -112 -1207 -466
-2290 -1090 -3335 -438 -732 -1004 -1383 -1553 -1782 -192 -140 -414 -266
-587 -333 -69 -27 -73 -31 -69 -54 3 -14 9 -54 13 -89 8 -74 -9 -67 204 -81
501 -34 1082 -38 1495 -11 1755 115 3180 647 4295 1604 141 121 462 443 589
591 1671 1954 1878 4912 510 7300 -495 865 -1203 1618 -2029 2161 -969 636
-2050 993 -3325 1099 -178 15 -830 28 -985 19z"/>
</g>
</svg>
