<?xml version="1.0" standalone="no"?>
<!DOCTYPE svg PUBLIC "-//W3C//DTD SVG 20010904//EN"
 "http://www.w3.org/TR/2001/REC-SVG-20010904/DTD/svg10.dtd">
<svg version="1.0" xmlns="http://www.w3.org/2000/svg"
 width="480.000000pt" height="480.000000pt" viewBox="0 0 480.000000 480.000000"
 preserveAspectRatio="xMidYMid meet">
<metadata>
Created by potrace 1.16, written by Peter Selinger 2001-2019
</metadata>
<g transform="translate(0.000000,480.000000) scale(0.100000,-0.100000)"
fill="#000000" stroke="none">
<path d="M1120 4628 c-176 -24 -251 -40 -315 -68 -145 -61 -208 -101 -304
-194 -149 -144 -237 -304 -271 -491 -36 -201 -40 -343 -40 -1455 0 -1096 2
-1188 36 -1395 18 -106 15 -95 39 -170 33 -104 109 -229 194 -318 107 -113
275 -222 371 -242 19 -4 40 -11 45 -15 6 -4 26 -10 45 -14 19 -4 64 -12 100
-19 91 -17 2641 -16 2750 0 109 17 144 25 155 33 6 4 24 10 40 14 45 10 152
64 220 109 75 50 187 164 240 242 39 57 94 162 99 188 2 7 9 26 15 42 13 30
22 74 44 200 17 97 16 2608 -1 2710 -12 76 -25 140 -40 195 -29 110 -151 300
-254 395 -74 69 -204 155 -233 155 -8 0 -15 4 -15 9 0 7 -22 14 -68 22 -4 0
-16 6 -27 12 -11 7 -24 12 -30 13 -5 0 -17 3 -25 7 -18 6 -71 16 -165 29 -90
13 -2516 19 -2605 6z m1935 -1153 c22 -2 105 -6 184 -10 168 -7 226 -17 296
-49 104 -47 164 -130 204 -279 32 -118 55 -496 47 -772 -14 -472 -50 -634
-166 -739 -83 -75 -151 -91 -441 -108 -279 -16 -1310 -15 -1569 1 -292 19
-370 38 -455 112 -95 84 -128 197 -156 530 -11 136 -8 638 5 729 3 19 10 78
15 130 23 211 89 330 218 395 84 42 160 50 554 61 129 4 236 9 239 12 5 5 956
-6 1025 -13z"/>
<path d="M2106 2883 c-3 -3 -6 -177 -6 -385 0 -318 2 -378 14 -378 8 0 43 16
78 36 34 20 146 81 248 137 102 55 217 118 255 139 39 21 85 46 103 55 17 9
32 19 32 22 0 3 -89 52 -198 108 -108 57 -269 141 -358 188 -89 46 -164 82
-168 78z"/>
</g>
</svg>
