<?xml version="1.0" encoding="iso-8859-1"?>
<!-- Generator: Adobe Illustrator 19.0.0, SVG Export Plug-In . SVG Version: 6.00 Build 0)  -->
<svg version="1.1" id="Layer_1" xmlns="http://www.w3.org/2000/svg" xmlns:xlink="http://www.w3.org/1999/xlink" x="0px" y="0px"
	 viewBox="0 0 512 512" style="enable-background:new 0 0 512 512;" xml:space="preserve">
<g>
	<g>
		<path d="M163.576,305.929L14.515,159.36C9.122,154.052,0,157.875,0,165.444v276.608c0,7.322,8.619,11.247,14.14,6.434
			L163.2,318.456C166.955,315.179,167.125,309.419,163.576,305.929z"/>
	</g>
</g>
<g>
	<g>
		<path d="M474.121,136.55h-81.587c-4.634,0-8.542,3.695-8.533,8.337c0.111,70.673-57.353,128.196-128,128.196
			s-128.111-57.523-128-128.196c0.009-4.642-3.9-8.337-8.533-8.337H37.879c-7.629,0-11.426,9.25-5.99,14.609l218.121,215.04
			c3.319,3.277,8.661,3.277,11.981,0l218.121-215.04C485.547,145.801,481.758,136.55,474.121,136.55z"/>
	</g>
</g>
<g>
	<g>
		<path d="M486.562,462.916L335.514,329.523c-3.345-2.953-8.397-2.833-11.597,0.282l-61.969,60.297
			c-1.656,1.604-3.797,2.415-5.948,2.415s-4.292-0.811-5.948-2.415l-61.969-60.297c-3.2-3.115-8.252-3.234-11.597-0.282
			L25.438,462.916c-5.888,5.205-2.21,14.933,5.649,14.933h449.826C488.772,477.85,492.45,468.122,486.562,462.916z"/>
	</g>
</g>
<g>
	<g>
		<path d="M497.485,159.351l-149.06,146.577c-3.541,3.482-3.371,9.25,0.375,12.518l149.06,130.031
			c5.521,4.813,14.14,0.887,14.14-6.434V165.436C512,157.867,502.878,154.044,497.485,159.351z"/>
	</g>
</g>
<g>
	<g>
		<path d="M256,34.15c-61.269,0-110.933,49.664-110.933,110.933S194.731,256.017,256,256.017s110.933-49.664,110.933-110.933
			S317.269,34.15,256,34.15z M290.372,128.375l-21.521-0.299c-2.372-0.034-4.318,1.886-4.318,4.267v85.274
			c0,2.355-1.911,4.267-4.267,4.267h-8.533c-2.355,0-4.267-1.911-4.267-4.267v-85.274c0-2.381-1.946-4.301-4.326-4.267
			l-21.521,0.299c-3.473,0-5.487-3.925-3.473-6.75l34.372-48.128c1.698-2.381,5.239-2.381,6.946,0l34.381,48.128
			C295.859,124.45,293.845,128.375,290.372,128.375z"/>
	</g>
</g>
<g>
</g>
<g>
</g>
<g>
</g>
<g>
</g>
<g>
</g>
<g>
</g>
<g>
</g>
<g>
</g>
<g>
</g>
<g>
</g>
<g>
</g>
<g>
</g>
<g>
</g>
<g>
</g>
<g>
</g>
</svg>
